# xmcd
#
# Track frame offsets:
#       150
#       10942
#       22957
#       32394
#       38846
#       49254
#       58832
#       75974
#       87790
#       98511
#       110449
#       119587
#       140304
#       148021
#       161567
#       173555
#
# Disc length: 2447 seconds
#
# Revision: 2
# Processed by: cddbd v1.5.2PL0 Copyright (c) Steve Scherf et al.
# Submitted via: FreeDbEdit v0.1
#
DISCID=be098d10
DTITLE=Covered Sleigh Band - Silver Spur Christmas
DYEAR=1900
DGENRE=Christmas
TTITLE0=Jingle Bells
TTITLE1=Santa Claus Is Coming to Town
TTITLE2=Frosty the Snowman
TTITLE3=Deck the Halls
TTITLE4=Go Tell It on the Mountain
TTITLE5=We Three Kings
TTITLE6=O Holy Night
TTITLE7=The First Noel
TTITLE8=Rudolph the Red Nosed Reindeer
TTITLE9=We Wish You a Merry Christmas
TTITLE10=O Little Town of Bethlehem
TTITLE11=White Christmas
TTITLE12=It Came Upon a Midnight Clear
TTITLE13=Away in a Manger
TTITLE14=God Rest Ye Merry Gentlemen
TTITLE15=Jolly Old St. Nick
EXTD=
EXTT0=
EXTT1=
EXTT2=
EXTT3=
EXTT4=
EXTT5=
EXTT6=
EXTT7=
EXTT8=
EXTT9=
EXTT10=
EXTT11=
EXTT12=
EXTT13=
EXTT14=
EXTT15=
PLAYORDER=
